<svg id="Layer_1" data-name="Layer 1" xmlns="http://www.w3.org/2000/svg" viewBox="0 0 62.81 78.48">
<path class="cls-1" d="M19.49,65.93c-3.87-3.5-5-10.84-3.39-16.17,2.8,3.36,6.68,4.42,10.7,5,6.2.93,12.29.58,18.06-2.22.66-.32,1.27-.74,2-1.17a10.32,10.32,0,0,1,.49,4.7,12.84,12.84,0,0,1-5.52,9.13c-1.24.91-2.56,1.72-3.84,2.58C34,70.43,33,73.51,34.45,78c0,.11.07.22.15.49A10.27,10.27,0,0,1,30,74.59a10.82,10.82,0,0,1-1.77-5.93,27.23,27.23,0,0,0-.16-3.13c-.35-2.52-1.55-3.64-3.8-3.71a4.45,4.45,0,0,0-4.63,3.57c0,.17-.09.34-.14.54Z"/><path class="cls-1" d="M0,51.39s10.6-5.15,21.23-5.15l8-24.73a2.39,2.39,0,0,1,2.16-2,2.4,2.4,0,0,1,2.17,2l8,24.73a44.93,44.93,0,0,1,21.23,5.15s-18-48.91-18-49C44.25.93,43.38,0,42.2,0H20.6c-1.17,0-2,.93-2.56,2.38C18,2.47,0,51.39,0,51.39Z"/></svg>